<?xml version="1.0" encoding="iso-8859-1"?>
<!-- Uploaded to: SVG Repo, www.svgrepo.com, Generator: SVG Repo Mixer Tools -->
<!DOCTYPE svg PUBLIC "-//W3C//DTD SVG 1.1//EN" "http://www.w3.org/Graphics/SVG/1.1/DTD/svg11.dtd">
<svg fill="#000000" height="800px" width="800px" version="1.1" id="Capa_1" xmlns="http://www.w3.org/2000/svg" xmlns:xlink="http://www.w3.org/1999/xlink" 
	 viewBox="0 0 218.836 218.836" xml:space="preserve">
<path d="M180.085,211.336c0,4.142-3.358,7.5-7.5,7.5h-128c-4.142,0-7.5-3.358-7.5-7.5v-16c0-4.142,3.358-7.5,7.5-7.5h128
	c4.142,0,7.5,3.358,7.5,7.5V211.336z M213.699,5.1c-3.214-1.512-7.05-0.578-9.186,2.262l-75.816,100.821l-12.088-40.827
	c-0.082-0.275-0.197-0.534-0.307-0.796l26.089-26.089c1.406-1.407,2.196-3.314,2.196-5.304s-0.79-3.896-2.197-5.304L114.721,2.196
	c-2.928-2.928-7.677-2.928-10.606,0L76.447,29.864c-2.929,2.93-2.929,7.678,0,10.606l26.088,26.089
	c-0.112,0.265-0.228,0.528-0.31,0.807l-12.103,41.181L14.324,7.723c-2.137-2.842-5.973-3.791-9.188-2.28
	c-3.216,1.513-4.929,5.074-4.103,8.531l35.883,150.106c0.808,3.375,3.824,5.756,7.295,5.756h130.414c3.472,0,6.49-2.388,7.295-5.765
	l35.883-150.434C218.628,10.181,216.915,6.611,213.699,5.1z"/>
</svg>