<?xml version="1.0" encoding="UTF-8" standalone="no" ?>
<!DOCTYPE svg PUBLIC "-//W3C//DTD SVG 1.1//EN" "http://www.w3.org/Graphics/SVG/1.1/DTD/svg11.dtd">
<svg xmlns="http://www.w3.org/2000/svg" xmlns:xlink="http://www.w3.org/1999/xlink" version="1.1" width="1080" height="1080" viewBox="0 0 1080 1080" xml:space="preserve">
<desc>Created with Fabric.js 5.2.4</desc>
<defs>
</defs>
<rect x="0" y="0" width="100%" height="100%" fill="transparent"></rect>
<g transform="matrix(1 0 0 1 540 540)" id="eba498f9-ae34-46e0-9c23-e98c98a296fc"  >
</g>
<g transform="matrix(1 0 0 1 540 540)" id="30ad86ac-20b1-487a-b9fe-c271b4492fa0"  >
<rect style="stroke: none; stroke-width: 1; stroke-dasharray: none; stroke-linecap: butt; stroke-dashoffset: 0; stroke-linejoin: miter; stroke-miterlimit: 4; fill: rgb(255,255,255); fill-rule: nonzero; opacity: 1; visibility: hidden;" vector-effect="non-scaling-stroke"  x="-540" y="-540" rx="0" ry="0" width="1080" height="1080" />
</g>
<g transform="matrix(1 0 0 1 540 540)"  >
<g style="" vector-effect="non-scaling-stroke"   >
		<g transform="matrix(1 0 0 1 0 122.33)"  >
<path style="stroke: none; stroke-width: 1; stroke-dasharray: none; stroke-linecap: butt; stroke-dashoffset: 0; stroke-linejoin: miter; stroke-miterlimit: 4; fill: rgb(160,166,168); fill-rule: nonzero; opacity: 1;" vector-effect="non-scaling-stroke"  transform=" translate(-256, -378.34)" d="M 269 335.61 Q 262.67 336.08000000000004 256.22 336.08000000000004 C 250.99000000000004 336.08000000000004 245.82000000000002 335.84000000000003 240.71000000000004 335.39000000000004 C 189.55374647370508 330.85515044506207 142.92563053235764 304.2157302464102 113.04000000000002 262.45000000000005 C 112.2492741545599 261.3220521440891 110.93380543305706 260.68032881698014 109.55813989862747 260.75144889630815 C 108.1824743641979 260.8225689756361 106.9401943579263 261.5965245117142 106.27000000000004 262.80000000000007 L 34.27000000000004 392.20000000000005 C 31.530000000000037 397.20000000000005 31.100000000000037 403.20000000000005 33.99000000000004 408.08000000000004 C 37.04842649219396 412.999112499584 42.42762642504732 415.9930171705748 48.220000000000006 416 L 126.22 416 C 131.7526827881737 415.79540219900457 136.9632258991266 418.5996078526966 139.84 423.33 L 178.5 488 C 181.37691060482763 492.8797254694168 186.5860504389708 495.91049773655465 192.25 496 C 198.19 495.67 204.34 491.81 206.81 486.4 L 272.92 341.25 C 273.5006403823629 339.967284295601 273.3641132081564 338.47375691195316 272.5605271046969 337.3175769059553 C 271.7569410012374 336.16139689995754 270.40465906109256 335.512862190508 269 335.61 z M 477.64 391.88 L 406.11 262.71000000000004 C 405.43838884485365 261.51854805386694 404.2045779178607 260.75283981509887 402.83881886443413 260.6798912603164 C 401.4730598110076 260.606942705534 400.16470468136794 261.23686759409617 399.37 262.35 C 379.698752033986 289.91128940271904 352.5145711427632 311.23235172348143 321.06 323.7700000000001 C 317.1979149006486 325.2921529122533 314.0735836594977 328.2480855658651 312.34 332.02000000000004 L 275.47999999999996 413.12 C 274.5196666608794 415.21519998611063 274.5196666608794 417.6248000138894 275.47999999999996 419.72 L 305.74999999999994 486.31000000000006 C 308.19999999999993 491.7200000000001 314.3399999999999 495.6700000000001 320.2699999999999 496.00000000000006 C 325.9381015891515 495.86026408946026 331.12637504470274 492.7851706252941 333.9699999999999 487.88000000000005 L 372.4999999999999 423.30000000000007 C 375.3899999999999 418.45000000000005 380.6299999999999 415.9700000000001 386.27999999999986 416.00000000000006 L 465.04999999999984 416.00000000000006 C 471.71999999999986 416.00000000000006 476.76999999999987 412.52000000000004 479.04999999999984 406.00000000000006 C 480.67171352541925 401.3141048610776 480.1563020892278 396.15267969864965 477.6399999999998 391.88000000000005 z" stroke-linecap="round" />
</g>
		<g transform="matrix(1 0 0 1 0.26 -96)"  >
<ellipse style="stroke: none; stroke-width: 1; stroke-dasharray: none; stroke-linecap: butt; stroke-dashoffset: 0; stroke-linejoin: miter; stroke-miterlimit: 4; fill: rgb(160,166,168); fill-rule: nonzero; opacity: 1;" vector-effect="non-scaling-stroke"  cx="0" cy="0" rx="48.01" ry="48" />
</g>
		<g transform="matrix(1 0 0 1 0.26 -96)"  >
<path style="stroke: none; stroke-width: 1; stroke-dasharray: none; stroke-linecap: butt; stroke-dashoffset: 0; stroke-linejoin: miter; stroke-miterlimit: 4; fill: rgb(160,166,168); fill-rule: nonzero; opacity: 1;" vector-effect="non-scaling-stroke"  transform=" translate(-256.26, -160)" d="M 256.26 16 C 176.83999999999997 16 112.25999999999999 80.59 112.25999999999999 160 C 112.25999999999999 239.41 176.87 304 256.26 304 C 335.65 304 400.26 239.4 400.26 160 C 400.26 80.6 335.66999999999996 16 256.26 16 z M 256.26 240 C 212.07722001353653 240 176.26 204.18277998646346 176.26 160 C 176.26 115.81722001353653 212.07722001353653 80 256.26 80 C 300.44277998646345 80 336.26 115.81722001353651 336.26 160 C 336.2049033192825 204.15993805999904 300.419938059999 239.9449033192825 256.26 240 z" stroke-linecap="round" />
</g>
</g>
</g>
<g transform="matrix(NaN NaN NaN NaN 0 0)"  >
<g style=""   >
</g>
</g>
<g transform="matrix(NaN NaN NaN NaN 0 0)"  >
<g style=""   >
</g>
</g>
</svg>